General
Complete name                    : Star Trek.mkv
Format                           : Matroska
File size                        : 1.52 GiB
Duration                         : 2h 1mn
Overall bit rate                 : 1 786 Kbps


Video
ID                               : 1
Format                           : AVC
Duration                         : 2h 1mn
Bit rate                         : 1 303 Kbps
Width                            : 718 pixels
Height                           : 428 pixels
Display aspect ratio             : 2.35:1
Frame rate                       : 25.000 fps
Resolution                       : 8 bits
Colorimetry                      : 4:2:0
Scan type                        : Progressive
Bits/(Pixel*Frame)               : 0.170
Stream size                      : 1.11 GiB (73%)
Writing library                  : x264 core 79

Audio
ID                               : 2
Format                           : AC-3
Format/Info                      : Audio Coding 3
Codec ID                         : A_AC3
Duration                         : 2h 1mn
Bit rate mode                    : Constant
Bit rate                         : 448 Kbps
Channel(s)                       : 6 channels
Channel positions                : Front: L C R, Surround: L R, LFE
Sampling rate                    : 48.0 KHz
Stream size                      : 390 MiB (25%)
Language                         : English

Text #1
Language                         : Finnish

Text #2
Language                         : Danish

Text #3
Language                         : Norwegian

Text #4
Language                         : Swedish

Text #5
Language                         : Dutch

Text #6
Language                         : English

